<svg xmlns="http://www.w3.org/2000/svg" width="352" height="336">
<defs><marker id="arrow-filled" refX="6" refY="3" markerWidth="6" markerHeight="6" orient="auto"><path d="M0,0 6,3 0,6z" style="stroke: none; fill: black;"></path></marker><marker id="arrow-open" refX="6" refY="3" markerWidth="6" markerHeight="6" orient="auto"><path d="M0,0 6,3 0,6" style="stroke-width: 1; stroke: black;"></path></marker></defs><rect width="28.5" height="38" style="stroke-width: 1; fill: none; stroke: black;" x="10" y="20"></rect><g><text fill="black" font-family="Helvetica,sans-Serif" x="24.25" y="39" style="text-anchor: middle; alignment-baseline: central;">A</text></g><rect width="28.5" height="38" style="stroke-width: 1; fill: none; stroke: black;" x="10" y="278"></rect><g><text fill="black" font-family="Helvetica,sans-Serif" x="24.25" y="297" style="text-anchor: middle; alignment-baseline: central;">A</text></g><path d="M24.25,58 v220" style="stroke-width: 1; fill: none; stroke: black;"></path><rect width="28.5" height="38" style="stroke-width: 1; fill: none; stroke: black;" x="293.5" y="20"></rect><g><text fill="black" font-family="Helvetica,sans-Serif" x="307.75" y="39" style="text-anchor: middle; alignment-baseline: central;">B</text></g><rect width="28.5" height="38" style="stroke-width: 1; fill: none; stroke: black;" x="293.5" y="278"></rect><g><text fill="black" font-family="Helvetica,sans-Serif" x="307.75" y="297" style="text-anchor: middle; alignment-baseline: central;">B</text></g><path d="M307.75,58 v220" style="stroke-width: 1; fill: none; stroke: black;"></path><path d="M157.75,78 L157.75,85 L164.75,85 L157.75,78 L44.25,78 L44.25,106 L164.75,106 L164.75,85 Z" style="stroke-width: 1; fill: none; stroke: black;"></path><g><text fill="black" font-family="Helvetica,sans-Serif" x="104.5" y="92" style="text-anchor: middle; alignment-baseline: central;">four way wave</text></g><g><text fill="black" font-family="Helvetica,sans-Serif" x="166" y="131" style="text-anchor: middle; alignment-baseline: central;">FIN:seq=numberc | ACK:numberd</text></g><path d="M24.25,144 h283.5" style="stroke-width: 1; fill: none; stroke: black;" marker-end="url(#arrow-filled)"></path><g><text fill="black" font-family="Helvetica,sans-Serif" x="166" y="169" style="text-anchor: middle; alignment-baseline: central;">ACK:numberc+1 | seq=numberd</text></g><path d="M307.75,182 h-283.5" style="stroke-width: 1; fill: none; stroke: black;" marker-end="url(#arrow-filled)"></path><g><text fill="black" font-family="Helvetica,sans-Serif" x="166" y="207" style="text-anchor: middle; alignment-baseline: central;">FIN:seq=numberd | ACK:numberc+1</text></g><path d="M307.75,220 h-283.5" style="stroke-width: 1; fill: none; stroke: black;" marker-end="url(#arrow-filled)"></path><g><text fill="black" font-family="Helvetica,sans-Serif" x="166" y="245" style="text-anchor: middle; alignment-baseline: central;">ACK:numberd+1 | seq=numberc+1</text></g><path d="M24.25,258 h283.5" style="stroke-width: 1; fill: none; stroke: black;" marker-end="url(#arrow-filled)"></path></svg>