<svg xmlns="http://www.w3.org/2000/svg" width="377.5" height="298">
<defs><marker id="arrow-filled" refX="6" refY="3" markerWidth="6" markerHeight="6" orient="auto"><path d="M0,0 6,3 0,6z" style="stroke: none; fill: black;"></path></marker><marker id="arrow-open" refX="6" refY="3" markerWidth="6" markerHeight="6" orient="auto"><path d="M0,0 6,3 0,6" style="stroke-width: 1; stroke: black;"></path></marker></defs><rect width="28.5" height="38" style="stroke-width: 1; fill: none; stroke: black;" x="10" y="20"></rect><g><text fill="black" font-family="Helvetica,sans-Serif" x="24.25" y="39" style="text-anchor: middle; alignment-baseline: central;">A</text></g><rect width="28.5" height="38" style="stroke-width: 1; fill: none; stroke: black;" x="10" y="240"></rect><g><text fill="black" font-family="Helvetica,sans-Serif" x="24.25" y="259" style="text-anchor: middle; alignment-baseline: central;">A</text></g><path d="M24.25,58 v182" style="stroke-width: 1; fill: none; stroke: black;"></path><rect width="28.5" height="38" style="stroke-width: 1; fill: none; stroke: black;" x="319" y="20"></rect><g><text fill="black" font-family="Helvetica,sans-Serif" x="333.25" y="39" style="text-anchor: middle; alignment-baseline: central;">B</text></g><rect width="28.5" height="38" style="stroke-width: 1; fill: none; stroke: black;" x="319" y="240"></rect><g><text fill="black" font-family="Helvetica,sans-Serif" x="333.25" y="259" style="text-anchor: middle; alignment-baseline: central;">B</text></g><path d="M333.25,58 v182" style="stroke-width: 1; fill: none; stroke: black;"></path><path d="M208.75,78 L208.75,85 L215.75,85 L208.75,78 L44.25,78 L44.25,106 L215.75,106 L215.75,85 Z" style="stroke-width: 1; fill: none; stroke: black;"></path><g><text fill="black" font-family="Helvetica,sans-Serif" x="130" y="92" style="text-anchor: middle; alignment-baseline: central;">three way handshake</text></g><g><text fill="black" font-family="Helvetica,sans-Serif" x="178.75" y="131" style="text-anchor: middle; alignment-baseline: central;">SYN:numbera(ISN)</text></g><path d="M24.25,144 h309" style="stroke-width: 1; fill: none; stroke: black;" marker-end="url(#arrow-filled)"></path><g><text fill="black" font-family="Helvetica,sans-Serif" x="178.75" y="169" style="text-anchor: middle; alignment-baseline: central;">SYN:numberb | ACK:numbera+1(SYN+1)</text></g><path d="M333.25,182 h-309" style="stroke-width: 1; fill: none; stroke: black;" marker-end="url(#arrow-filled)"></path><g><text fill="black" font-family="Helvetica,sans-Serif" x="178.75" y="207" style="text-anchor: middle; alignment-baseline: central;">ACK:numberb+1(ISN+1)</text></g><path d="M24.25,220 h309" style="stroke-width: 1; fill: none; stroke: black;" marker-end="url(#arrow-filled)"></path></svg>